<svg xmlns="http://www.w3.org/2000/svg" xmlns:xlink="http://www.w3.org/1999/xlink" width="200" height="55" viewBox="0 0 180 47">
  <defs>
    <linearGradient id="linear-gradient" x1="0.5" x2="0.5" y2="1" gradientUnits="objectBoundingBox">
      <stop offset="0" stop-color="#ffbe00"/>
      <stop offset="1" stop-color="#f36a10"/>
    </linearGradient>
    <linearGradient id="linear-gradient-2" x1="0.5" x2="0.5" y2="1" gradientUnits="objectBoundingBox">
      <stop offset="0" stop-color="#ffbe00"/>
      <stop offset="1" stop-color="#ff6500"/>
    </linearGradient>
    <linearGradient id="linear-gradient-5" x1="0.5" x2="0.5" y2="1" gradientUnits="objectBoundingBox">
      <stop offset="0" stop-color="#1c91ab"/>
      <stop offset="1" stop-color="#4d9261"/>
    </linearGradient>
    <linearGradient id="linear-gradient-6" x1="-0.285" y1="0.432" x2="0.5" y2="1" gradientUnits="objectBoundingBox">
      <stop offset="0" stop-color="#f78c1a"/>
      <stop offset="1" stop-color="#e40051"/>
    </linearGradient>
    <linearGradient id="linear-gradient-7" x1="0.5" x2="1.036" y2="0.391" gradientUnits="objectBoundingBox">
      <stop offset="0" stop-color="#ffbe00"/>
      <stop offset="1" stop-color="#f16012"/>
    </linearGradient>
    <linearGradient id="linear-gradient-9" y2="0.886" xlink:href="#linear-gradient-5"/>
    <clipPath id="clip-path">
      <path id="SVGID" d="M94.743,225.481a14.036,14.036,0,0,1-1.773-.712,6.863,6.863,0,0,1-2.208-1.54,3.367,3.367,0,0,1-.869-1.579.646.646,0,0,1,.7-.85,4.449,4.449,0,0,1,2.871,2.154,18.506,18.506,0,0,1,1.278,2.526" transform="translate(-89.874 -220.797)" fill="url(#linear-gradient)" clip-rule="evenodd"/>
    </clipPath>
    <clipPath id="clip-path-2">
      <path id="SVGID-2" data-name="SVGID" d="M123.705,212.27a14.877,14.877,0,0,1-.707-1.814,7.218,7.218,0,0,1-.416-2.706,3.406,3.406,0,0,1,.527-1.731.626.626,0,0,1,1.083-.057,4.662,4.662,0,0,1,.434,3.623,18.614,18.614,0,0,1-.92,2.685" transform="translate(-122.567 -205.676)" fill="url(#linear-gradient-2)" clip-rule="evenodd"/>
    </clipPath>
    <clipPath id="clip-path-3">
      <path id="SVGID-3" data-name="SVGID" d="M144,225.5a14.747,14.747,0,0,1,.817-1.764,7.023,7.023,0,0,1,1.653-2.151,3.225,3.225,0,0,1,1.6-.778.643.643,0,0,1,.776.778,4.529,4.529,0,0,1-2.3,2.786A17.584,17.584,0,0,1,144,225.5" transform="translate(-143.998 -220.798)" fill="url(#linear-gradient)" clip-rule="evenodd"/>
    </clipPath>
    <clipPath id="clip-path-4">
      <path id="SVGID-4" data-name="SVGID" d="M150.221,253.273a13.978,13.978,0,0,1,1.79-.666,6.7,6.7,0,0,1,2.649-.338,3.205,3.205,0,0,1,1.669.6.66.66,0,0,1,.019,1.113,4.338,4.338,0,0,1-3.542.325,17.567,17.567,0,0,1-2.585-1.033" transform="translate(-150.221 -252.239)" fill="url(#linear-gradient)" clip-rule="evenodd"/>
    </clipPath>
    <clipPath id="clip-path-5">
      <path id="SVGID-5" data-name="SVGID" d="M97.688,295.921c-.095-.108-.192-.214-.283-.324s-.168-.109-.259,0-.19.213-.326.364c-.173-.331-.334-.612-.468-.906-.121-.267-.21-.549-.318-.823a.463.463,0,0,0-.1-.137,1.789,1.789,0,0,0-.252-.253c-.241-.173-.235-.358-.145-.637a3.753,3.753,0,0,0,.174-1.114c.011-3.56,0-7.12.005-10.68a4.219,4.219,0,0,0-.491-1.854,17.84,17.84,0,0,0-1.408-2.35,23.3,23.3,0,0,0-3.106-3.641,6.583,6.583,0,0,0-1.723-1.234,2.245,2.245,0,0,0-.539-.174c-.133-.025-.156-.087-.155-.2,0-.941,0-1.882,0-2.823,0-.15.063-.181.192-.178a4.02,4.02,0,0,1,1.6.44,9.767,9.767,0,0,1,2.225,1.447,15.726,15.726,0,0,1,2.169,2.1c.284.351.606.67.886,1.024.376.476.736.966,1.087,1.463.26.369.494.757.741,1.136a1.445,1.445,0,0,0,.1.117c.174-.275.33-.537.5-.789.241-.359.48-.72.741-1.064.376-.495.752-.991,1.161-1.456.48-.546.981-1.074,1.5-1.585a13.725,13.725,0,0,1,2.141-1.749,7.084,7.084,0,0,1,1.868-.923,3.087,3.087,0,0,1,.881-.157c.134,0,.186.04.186.184,0,.941,0,1.882,0,2.823,0,.11-.022.158-.146.188a4.074,4.074,0,0,0-1.5.77,15.8,15.8,0,0,0-2.022,1.926c-.391.422-.743.882-1.1,1.338-.34.439-.671.887-.983,1.347a13.312,13.312,0,0,0-1.385,2.491,4.228,4.228,0,0,0-.293,1.616c.006,3.458,0,6.917,0,10.375a4.3,4.3,0,0,0,.252,1.445.307.307,0,0,1-.019.166.163.163,0,0,1-.062.069,2.512,2.512,0,0,0-.727,1.177c-.138.36-.334.7-.505,1.043l-.085.007" transform="translate(-88.296 -268.952)" fill="url(#linear-gradient-5)" clip-rule="evenodd"/>
    </clipPath>
    <clipPath id="clip-path-6">
      <path id="SVGID-6" data-name="SVGID" d="M140.03,318.546a6.4,6.4,0,0,1-.714-1.513,9.8,9.8,0,0,1-.3-1.224,7.038,7.038,0,0,1-.087-1.139q-.013-5.455,0-10.909a11.389,11.389,0,0,1,.135-1.245,5.839,5.839,0,0,1,.521-1.735,7.184,7.184,0,0,1,1.06-1.681,6.9,6.9,0,0,1,3.686-2.276,6.347,6.347,0,0,1,1.391-.172c1.74-.02,3.481-.017,5.221,0a8.509,8.509,0,0,1,1.155.141,5.974,5.974,0,0,1,2.114.789,6.612,6.612,0,0,1,2.146,1.955c.258.369.46.779.7,1.164a.331.331,0,0,1-.057.477c-.761.764-1.508,1.543-2.26,2.316a.878.878,0,0,1-.113.078c-.023-.118-.048-.213-.06-.311a3.776,3.776,0,0,0-1.755-2.81,3.614,3.614,0,0,0-1.314-.532,4.413,4.413,0,0,0-.794-.068c-1.611-.006-3.221-.024-4.831,0a3.8,3.8,0,0,0-3.523,2.454,3.374,3.374,0,0,0-.263,1.384c.015.546.009,1.093-.006,1.64-.006.193.07.216.227.216q2.444-.006,4.887,0c.243,0,.242,0,.242.249q0,1.354,0,2.708c0,.256-.006.253-.245.253-1.641,0-3.283,0-4.924-.007-.173,0-.185.1-.184.232q0,2.67,0,5.34a7.773,7.773,0,0,0,.02.914c.032.273.132.536.187.807a.333.333,0,0,1-.033.253c-.7.735-1.413,1.461-2.122,2.188a.645.645,0,0,1-.1.064" transform="translate(-138.921 -296.638)" fill="url(#linear-gradient-6)" clip-rule="evenodd"/>
    </clipPath>
    <clipPath id="clip-path-7">
      <path id="SVGID-7" data-name="SVGID" d="M39.054,303.563c-.192-.195-.386-.389-.577-.585-.6-.615-1.2-1.235-1.8-1.843a.238.238,0,0,1-.055-.314,7.249,7.249,0,0,1,1.5-2.156A6.417,6.417,0,0,1,40,297.337a10.312,10.312,0,0,1,1.248-.447,6.3,6.3,0,0,1,1.865-.237c1.622.007,3.245-.007,4.868.009a9.644,9.644,0,0,1,1.173.141,5.594,5.594,0,0,1,1.524.479,6.32,6.32,0,0,1,1.578,1.005,7.025,7.025,0,0,1,1.407,1.607,6.467,6.467,0,0,1,.763,1.63,12.1,12.1,0,0,1,.293,1.2,5.963,5.963,0,0,1,.084,1.023q0,5.321-.009,10.641a9.624,9.624,0,0,1-.07,1.331,7.121,7.121,0,0,1-.929,2.675c-.1.172-.13.168-.271.023q-1-1.024-2-2.044a.278.278,0,0,1-.071-.347,3.746,3.746,0,0,0,.2-1.323q-.006-2.851,0-5.7c0-.181-.049-.242-.231-.242-1.635,0-3.27,0-4.905,0-.186,0-.226-.059-.225-.239q.013-1.373,0-2.746c0-.174.04-.227.214-.226,1.629.007,3.258,0,4.887,0,.246,0,.248,0,.248-.257,0-.661.027-1.324-.014-1.982a3.379,3.379,0,0,0-.56-1.624,4.051,4.051,0,0,0-1.326-1.3,3.876,3.876,0,0,0-2.028-.527c-1.623,0-3.246-.031-4.868.007a3.635,3.635,0,0,0-2.918,1.511,4.428,4.428,0,0,0-.748,1.63,1.647,1.647,0,0,0-.012.209c-.013.109-.031.218-.047.326l-.065.016" transform="translate(-36.584 -296.654)" fill="url(#linear-gradient-7)" clip-rule="evenodd"/>
    </clipPath>
    <clipPath id="clip-path-8">
      <path id="SVGID-8" data-name="SVGID" d="M108.747,242.552a4.348,4.348,0,0,1,8.679-.491,4.44,4.44,0,0,1-1.221,3.62,4.126,4.126,0,0,1-2.846,1.337,4.384,4.384,0,0,1-4.612-4.466" transform="translate(-108.746 -238.067)" fill="none" clip-rule="evenodd"/>
    </clipPath>
    <linearGradient id="linear-gradient-17" x1="-2.874" y1="9.249" x2="-2.847" y2="9.249" xlink:href="#linear-gradient-5"/>
    <clipPath id="clip-path-9">
      <path id="SVGID-9" data-name="SVGID" d="M83.538,253.385a14,14,0,0,1-1.772.715,6.709,6.709,0,0,1-2.639.411,3.2,3.2,0,0,1-1.684-.551.66.66,0,0,1-.049-1.112,4.34,4.34,0,0,1,3.532-.424,17.523,17.523,0,0,1,2.611.96" transform="translate(-77.114 -252.239)" fill="url(#linear-gradient-2)" clip-rule="evenodd"/>
    </clipPath>
    <clipPath id="clip-path-10">
      <path id="SVGID-10" data-name="SVGID" d="M104.788,239.46a5.273,5.273,0,0,1,10.527-.6,5.386,5.386,0,0,1-1.48,4.391,5,5,0,0,1-3.452,1.621,5.318,5.318,0,0,1-5.594-5.417" transform="translate(-104.788 -234.02)" fill="url(#linear-gradient-9)" clip-rule="evenodd"/>
    </clipPath>
    <clipPath id="clip-fix_logo">
      <rect width="180" height="47"/>
    </clipPath>
  </defs>
  <g id="fix_logo" data-name="fix logo" clip-path="url(#clip-fix_logo)">
    <g id="Group_1" data-name="Group 1" transform="translate(-35.584 -204.676)">
      <path id="Path_1" data-name="Path 1" d="M262.9,251.845q.813-1.015,1.418-1.793t.9-1.184l1.835-2.435,3.357,3.345-.25.271-.709.793-.73.789-.73.816-.563.609-.667.725-.542.586-.5.541,4.8,5.7-3.565,3.574-.709-.932-.584-.819-.417-.567-.917-1.225-.98-1.3-.417-.567-.375-.5-.876,1.172-1.1,1.466-1.209,1.624-1.167,1.646-3.232-3.428,4.816-5.592-1.188-1.4-.98-1.218-1-1.2-1.147-1.4L259,246.433l.959,1.308.813,1.127.563.767.521.744Zm35.354-5.381a11.006,11.006,0,0,1,3.544.457,7.629,7.629,0,0,1,2.252,1.225,6.07,6.07,0,0,1,.844.817,5.971,5.971,0,0,1,.678,1.009,8.514,8.514,0,0,1,.938,2.4,14.988,14.988,0,0,1,.292,2.884,8.965,8.965,0,0,1-.135,1.622,10.374,10.374,0,0,1-.469,1.646,9.146,9.146,0,0,1-1.668,2.872,7.957,7.957,0,0,1-2.648,2.006,10.393,10.393,0,0,1-1.741.637,7.39,7.39,0,0,1-1.887.228,9.61,9.61,0,0,1-3.534-.625,7.971,7.971,0,0,1-4.493-4.4,8.388,8.388,0,0,1-.448-1.5,8.123,8.123,0,0,1-.156-1.6l.042-.889a10.6,10.6,0,0,1,1.553-4.782,8.491,8.491,0,0,1,3.2-3A8.174,8.174,0,0,1,298.257,246.464Zm0,3.724a2.351,2.351,0,0,0-.907.168,3.4,3.4,0,0,0-.844.529,4.642,4.642,0,0,0-1.23,1.778,5.253,5.253,0,0,0-.386,1.178,6.951,6.951,0,0,0-.136,1.418,7.08,7.08,0,0,0,.928,3.941,2.7,2.7,0,0,0,2.283,1.394h.292a3.176,3.176,0,0,0,2.043-.941,4.515,4.515,0,0,0,1.064-1.93c.1-.42.174-.821.229-1.209a8.644,8.644,0,0,0,.083-1.229,7.156,7.156,0,0,0-.855-3.817,2.718,2.718,0,0,0-2.356-1.278Zm48.58-3.737H351.7l-.063,3.576-.062,4.727.063,5.327.063,4.151h-4.858l.042-8Zm6.535.1,1.564.075,2,.075h7.86l.667-.037,1.793-.113V250.9l-2.106-.075-2.5-.075.021,1.976.021,1.8.021,3.026.021,2.576v4.1h-4.8v-6.6l.021-2.5.021-4.377-4.608.15Zm-109.188,6.085a2.9,2.9,0,0,0-.372-.933,1.742,1.742,0,0,0-1.468-.89c-1.121-.03-2.242-.009-3.362-.005a1.769,1.769,0,0,0-1.042.309,2.283,2.283,0,0,0-.68.785,2.074,2.074,0,0,0-.269.89c-.016.295-.016.591-.013.886.946,0,1.892,0,2.839,0,.529,0,.887.434.882,1.068q-.009,1.106,0,2.212c0,.64-.353,1.08-.889,1.078-.945,0-1.889,0-2.834,0q0,1.975,0,3.95a2.546,2.546,0,0,0,.093.761,1.253,1.253,0,0,1-.219,1.215q-.7.825-1.386,1.656a.735.735,0,0,1-1.326-.18,7.467,7.467,0,0,1-.745-2.5,10.092,10.092,0,0,1-.056-1.205q-.009-4.32-.007-8.64a6.66,6.66,0,0,1,.07-.986c.054-.361.136-.713.222-1.064a6.639,6.639,0,0,1,.615-1.548,6.4,6.4,0,0,1,1.123-1.5,5.109,5.109,0,0,1,1.277-.95,4.121,4.121,0,0,1,1.253-.453,6.3,6.3,0,0,1,.9-.122c1.128-.013,2.257,0,3.385-.007a4.406,4.406,0,0,1,1.5.228,7.134,7.134,0,0,1,.953.4,5.27,5.27,0,0,1,1.522,1.251,6.915,6.915,0,0,1,1.192,2.008,1.216,1.216,0,0,1-.19,1.252c-.419.491-.831.992-1.246,1.489-.134.161-.269.319-.4.478l-.287.339-.392-.11-.048-.013-.48-.136-.073-.585c-.012-.1-.026-.194-.036-.292C244.185,252.717,244.184,252.677,244.183,252.636Zm97.889,0a2.883,2.883,0,0,0-.372-.933,1.741,1.741,0,0,0-1.468-.89c-1.121-.03-2.242-.009-3.362-.005a1.769,1.769,0,0,0-1.042.309,2.278,2.278,0,0,0-.68.785,2.072,2.072,0,0,0-.269.89c-.016.295-.016.591-.013.886.946,0,1.892,0,2.839,0,.529,0,.887.434.882,1.068q-.009,1.106,0,2.212c0,.64-.354,1.08-.889,1.078-.945,0-1.889,0-2.834,0q0,1.975,0,3.95a2.547,2.547,0,0,0,.092.761,1.253,1.253,0,0,1-.219,1.215q-.7.825-1.386,1.656a.735.735,0,0,1-1.327-.18,7.46,7.46,0,0,1-.745-2.5,10.092,10.092,0,0,1-.056-1.205q-.008-4.32-.006-8.64a6.633,6.633,0,0,1,.07-.986c.054-.361.136-.713.221-1.064a6.65,6.65,0,0,1,.615-1.548,6.393,6.393,0,0,1,1.123-1.5,5.117,5.117,0,0,1,1.277-.95,4.125,4.125,0,0,1,1.254-.453,6.3,6.3,0,0,1,.9-.122c1.128-.013,2.257,0,3.385-.007a4.406,4.406,0,0,1,1.5.228,7.136,7.136,0,0,1,.954.4,5.27,5.27,0,0,1,1.522,1.251,6.914,6.914,0,0,1,1.192,2.008,1.216,1.216,0,0,1-.19,1.252c-.419.491-.831.992-1.246,1.489-.134.161-.269.319-.4.478l-.287.339-.392-.11-.048-.013-.48-.136-.073-.585c-.012-.1-.026-.194-.036-.292C342.075,252.717,342.074,252.677,342.073,252.636Zm-56.664,6.244q0-1.682,0-3.364a1.228,1.228,0,0,1,.063-.419,6.634,6.634,0,0,1,.583-1.175,5.8,5.8,0,0,1,3.345-3.036l-.274-4.423c-1.287,0-3.53,1.447-4.447,2.477a21.492,21.492,0,0,0-1.253,2.516,21.46,21.46,0,0,0-1.253-2.516c-.917-1.03-3.16-2.478-4.447-2.477l-.274,4.423a5.8,5.8,0,0,1,3.345,3.036,6.65,6.65,0,0,1,.583,1.175,1.221,1.221,0,0,1,.062.419q0,1.682,0,3.364,0,.753,0,1.506a6.058,6.058,0,0,1-.222,1.606c-.113.4-.122.669.186.918a2.445,2.445,0,0,1,.321.364.675.675,0,0,1,.122.2c.137.394.251.8.4,1.186.17.424.376.829.6,1.307.174-.219.3-.367.416-.525s.217-.154.33,0,.3.369.417.524a13.89,13.89,0,0,0,.7-1.57,3.719,3.719,0,0,1,.927-1.7.227.227,0,0,0,.079-.1.5.5,0,0,0,.024-.239,6.945,6.945,0,0,1-.321-2.083q0-.7,0-1.395Zm37.469-12.444h-4.8l.1,6.932-.021,2.27-.042,1.522a6.689,6.689,0,0,1-.146,1.027,3.146,3.146,0,0,1-.271.761,2.509,2.509,0,0,1-.886.979,1.978,1.978,0,0,1-1.011.3c-.1,0-.19,0-.281-.012q-.137.012-.281.012a1.977,1.977,0,0,1-1.011-.3,2.509,2.509,0,0,1-.886-.979,3.145,3.145,0,0,1-.271-.761,6.626,6.626,0,0,1-.146-1.027l-.042-1.522-.021-2.27.1-6.932h-4.8v6.377q0,2.246.135,3.72a12.332,12.332,0,0,0,.74,3.116,6.9,6.9,0,0,0,1.605,2.657,6.6,6.6,0,0,0,2.022,1.425,6.18,6.18,0,0,0,2.564.507c.094,0,.188,0,.281,0s.187,0,.281,0a6.18,6.18,0,0,0,2.564-.507A6.6,6.6,0,0,0,320.4,262.3,6.9,6.9,0,0,0,322,259.648a12.311,12.311,0,0,0,.74-3.116q.136-1.473.136-3.72Zm-73.943.015h4.858l-.063,3.576-.063,4.727.063,5.327.063,4.151h-4.858l.042-8Z" transform="translate(-150.673 -31.152)" fill="#1c91ab" fill-rule="evenodd"/>
      <path id="Path_2" data-name="Path 2" d="M317.183,351.844a1.728,1.728,0,0,1-.131.694,1.356,1.356,0,0,1-.366.5,1.588,1.588,0,0,1-.562.3,2.352,2.352,0,0,1-.7.1,2.457,2.457,0,0,1-.807-.136,2,2,0,0,1-.274-.122.758.758,0,0,1-.16-.117.4.4,0,0,1-.078-.172,1.714,1.714,0,0,1-.026-.345c0-.1,0-.18.009-.24a.841.841,0,0,1,.026-.145.143.143,0,0,1,.047-.073.116.116,0,0,1,.069-.018.309.309,0,0,1,.148.065c.065.042.146.09.245.141a2.343,2.343,0,0,0,.34.145,1.309,1.309,0,0,0,.44.067,1.018,1.018,0,0,0,.277-.035.658.658,0,0,0,.209-.1.408.408,0,0,0,.136-.171.6.6,0,0,0,.045-.237.429.429,0,0,0-.084-.267.756.756,0,0,0-.225-.194,2.27,2.27,0,0,0-.315-.156c-.117-.048-.237-.1-.36-.161a3.277,3.277,0,0,1-.362-.2,1.458,1.458,0,0,1-.315-.279,1.33,1.33,0,0,1-.223-.4,1.65,1.65,0,0,1-.084-.559,1.571,1.571,0,0,1,.114-.608,1.319,1.319,0,0,1,.329-.475,1.489,1.489,0,0,1,.522-.3,2.074,2.074,0,0,1,.692-.11,2.379,2.379,0,0,1,.7.11,1.276,1.276,0,0,1,.246.1.862.862,0,0,1,.145.092.3.3,0,0,1,.061.078.376.376,0,0,1,.028.094c.006.037.011.081.016.134s.008.12.008.2,0,.169-.008.228a.642.642,0,0,1-.023.14.124.124,0,0,1-.042.071.115.115,0,0,1-.064.017.275.275,0,0,1-.128-.055c-.059-.035-.131-.074-.218-.117a2.508,2.508,0,0,0-.3-.117,1.319,1.319,0,0,0-.39-.053.876.876,0,0,0-.27.035.481.481,0,0,0-.187.1.429.429,0,0,0-.111.157.538.538,0,0,0-.036.194.41.41,0,0,0,.087.268.819.819,0,0,0,.228.193,2.646,2.646,0,0,0,.322.156c.12.048.241.1.365.157a3.123,3.123,0,0,1,.365.2,1.413,1.413,0,0,1,.322.279,1.311,1.311,0,0,1,.228.4,1.553,1.553,0,0,1,.087.546m-8.426-1a3.737,3.737,0,0,0-.048-.629,1.572,1.572,0,0,0-.162-.5.854.854,0,0,0-.3-.33.878.878,0,0,0-.477-.12.912.912,0,0,0-.447.106.847.847,0,0,0-.315.311,1.614,1.614,0,0,0-.185.491,3.19,3.19,0,0,0-.061.655,3.6,3.6,0,0,0,.05.629,1.7,1.7,0,0,0,.162.5.83.83,0,0,0,.3.329.9.9,0,0,0,.474.116.926.926,0,0,0,.453-.108.85.85,0,0,0,.315-.308,1.558,1.558,0,0,0,.182-.49A3.3,3.3,0,0,0,308.757,350.846Zm1.183-.053a4.014,4.014,0,0,1-.137,1.078,2.375,2.375,0,0,1-.416.838,1.848,1.848,0,0,1-.7.544,2.356,2.356,0,0,1-.982.191,2.417,2.417,0,0,1-.944-.17,1.711,1.711,0,0,1-.667-.5,2.138,2.138,0,0,1-.392-.8,4.169,4.169,0,0,1-.128-1.087,3.971,3.971,0,0,1,.139-1.08,2.387,2.387,0,0,1,.418-.838,1.878,1.878,0,0,1,.7-.541,2.312,2.312,0,0,1,.98-.193,2.462,2.462,0,0,1,.949.168,1.665,1.665,0,0,1,.664.495,2.153,2.153,0,0,1,.391.8A4.283,4.283,0,0,1,309.94,350.793Zm-8.646-3.826a.8.8,0,0,1-.142.544,1,1,0,0,1-1.047.005.77.77,0,0,1-.136-.523.816.816,0,0,1,.14-.546.982.982,0,0,1,1.047-.005A.773.773,0,0,1,301.294,346.967Zm-.087,6.181a.152.152,0,0,1-.026.092.2.2,0,0,1-.093.064.74.74,0,0,1-.176.039,2.384,2.384,0,0,1-.279.014,2.357,2.357,0,0,1-.277-.014.72.72,0,0,1-.176-.039.187.187,0,0,1-.094-.064.155.155,0,0,1-.028-.092v-4.607a.146.146,0,0,1,.028-.09.19.19,0,0,1,.094-.067.7.7,0,0,1,.176-.044,1.971,1.971,0,0,1,.277-.016,1.993,1.993,0,0,1,.279.016.716.716,0,0,1,.176.044.2.2,0,0,1,.093.067.143.143,0,0,1,.026.09Zm-5.481-1.3a1.729,1.729,0,0,1-.131.694,1.356,1.356,0,0,1-.366.5,1.586,1.586,0,0,1-.563.3,2.35,2.35,0,0,1-.7.1,2.31,2.31,0,0,1-.436-.039,2.287,2.287,0,0,1-.371-.1,2,2,0,0,1-.274-.122.754.754,0,0,1-.16-.117.4.4,0,0,1-.078-.172,1.713,1.713,0,0,1-.026-.345c0-.1,0-.18.009-.24a.834.834,0,0,1,.026-.145.141.141,0,0,1,.047-.073.116.116,0,0,1,.069-.018.31.31,0,0,1,.148.065c.065.042.146.09.245.141a2.346,2.346,0,0,0,.34.145,1.308,1.308,0,0,0,.439.067,1.02,1.02,0,0,0,.277-.035.661.661,0,0,0,.209-.1.41.41,0,0,0,.136-.171.6.6,0,0,0,.045-.237.428.428,0,0,0-.084-.267.751.751,0,0,0-.224-.194,2.278,2.278,0,0,0-.315-.156c-.117-.048-.237-.1-.36-.161a3.274,3.274,0,0,1-.362-.2,1.458,1.458,0,0,1-.315-.279,1.331,1.331,0,0,1-.223-.4,1.651,1.651,0,0,1-.084-.559,1.572,1.572,0,0,1,.114-.608,1.317,1.317,0,0,1,.329-.475,1.488,1.488,0,0,1,.522-.3,2.074,2.074,0,0,1,.692-.11,2.378,2.378,0,0,1,.7.11,1.276,1.276,0,0,1,.246.1.872.872,0,0,1,.145.092.3.3,0,0,1,.061.078.374.374,0,0,1,.028.094c.006.037.011.081.015.134s.008.12.008.2,0,.169-.008.228a.645.645,0,0,1-.023.14.125.125,0,0,1-.042.071.114.114,0,0,1-.064.017.275.275,0,0,1-.128-.055c-.059-.035-.131-.074-.218-.117a2.523,2.523,0,0,0-.3-.117,1.318,1.318,0,0,0-.39-.053.874.874,0,0,0-.27.035.481.481,0,0,0-.187.1.424.424,0,0,0-.111.157.533.533,0,0,0-.036.194.41.41,0,0,0,.087.268.818.818,0,0,0,.227.193,2.65,2.65,0,0,0,.323.156c.12.048.241.1.365.157a3.161,3.161,0,0,1,.365.2,1.415,1.415,0,0,1,.322.279,1.317,1.317,0,0,1,.228.4A1.552,1.552,0,0,1,295.726,351.844Zm-8.344,1.481-.494,1.636a.3.3,0,0,1-.223.186,1.882,1.882,0,0,1-.534.057,1.8,1.8,0,0,1-.291-.018.4.4,0,0,1-.165-.058.145.145,0,0,1-.059-.1.364.364,0,0,1,.028-.15l.542-1.548a.346.346,0,0,1-.108-.1.511.511,0,0,1-.07-.138l-1.4-4.244a.97.97,0,0,1-.061-.278.2.2,0,0,1,.056-.15.33.33,0,0,1,.184-.074,2.243,2.243,0,0,1,.344-.021c.131,0,.235,0,.312.007a.522.522,0,0,1,.178.039.2.2,0,0,1,.1.1.993.993,0,0,1,.064.184l.96,3.092h.014l.876-3.154a.4.4,0,0,1,.07-.178.285.285,0,0,1,.145-.064,1.952,1.952,0,0,1,.351-.021,2.1,2.1,0,0,1,.327.021.353.353,0,0,1,.192.078.2.2,0,0,1,.061.152.8.8,0,0,1-.036.224Zm-6.788-.177a.165.165,0,0,1-.026.092.2.2,0,0,1-.092.064.692.692,0,0,1-.176.039,2.406,2.406,0,0,1-.276.014,2.458,2.458,0,0,1-.281-.014.691.691,0,0,1-.176-.039.2.2,0,0,1-.092-.064.165.165,0,0,1-.026-.092v-2.635a2.482,2.482,0,0,0-.044-.528,1.119,1.119,0,0,0-.126-.329.568.568,0,0,0-.516-.286.711.711,0,0,0-.442.18,2.65,2.65,0,0,0-.466.528v3.069a.153.153,0,0,1-.026.092.2.2,0,0,1-.093.064.743.743,0,0,1-.176.039,2.384,2.384,0,0,1-.279.014,2.357,2.357,0,0,1-.277-.014.72.72,0,0,1-.176-.039.185.185,0,0,1-.093-.064.154.154,0,0,1-.028-.092v-6.807a.163.163,0,0,1,.028-.094.181.181,0,0,1,.093-.069.7.7,0,0,1,.176-.044,1.971,1.971,0,0,1,.277-.016,1.993,1.993,0,0,1,.279.016.719.719,0,0,1,.176.044.2.2,0,0,1,.093.069.162.162,0,0,1,.026.094v2.552a2.245,2.245,0,0,1,.606-.495,1.36,1.36,0,0,1,.64-.163,1.443,1.443,0,0,1,.7.156,1.276,1.276,0,0,1,.461.424,1.846,1.846,0,0,1,.252.629,4.108,4.108,0,0,1,.078.873Zm-9.475-4.389a1.334,1.334,0,0,0-.109-.58.837.837,0,0,0-.27-.337.829.829,0,0,0-.335-.136,2.21,2.21,0,0,0-.363-.028h-.511v2.273h.538a1.171,1.171,0,0,0,.481-.088.84.84,0,0,0,.318-.246,1.1,1.1,0,0,0,.187-.378A1.726,1.726,0,0,0,271.119,348.759Zm1.256-.1a2.946,2.946,0,0,1-.156,1,1.886,1.886,0,0,1-1.18,1.186,3.027,3.027,0,0,1-1.016.156h-.492v2.138a.16.16,0,0,1-.029.092.2.2,0,0,1-.1.067.856.856,0,0,1-.184.042,2.161,2.161,0,0,1-.291.016,2.208,2.208,0,0,1-.29-.016.834.834,0,0,1-.185-.042.175.175,0,0,1-.1-.067.158.158,0,0,1-.028-.092v-6.028a.521.521,0,0,1,.112-.364.381.381,0,0,1,.295-.122h1.391c.14,0,.274.005.4.017a4,4,0,0,1,.453.078,1.843,1.843,0,0,1,.536.221,1.605,1.605,0,0,1,.464.406,1.749,1.749,0,0,1,.291.574A2.517,2.517,0,0,1,272.375,348.66Zm-10.4.3c0,.126,0,.226-.009.306a1.072,1.072,0,0,1-.028.187.18.18,0,0,1-.047.092.11.11,0,0,1-.076.027.212.212,0,0,1-.081-.018l-.1-.039c-.039-.014-.081-.026-.126-.039a.566.566,0,0,0-.151-.018.47.47,0,0,0-.192.042.829.829,0,0,0-.2.138,1.553,1.553,0,0,0-.215.249,4.129,4.129,0,0,0-.24.382v2.878a.152.152,0,0,1-.026.092.2.2,0,0,1-.093.064.741.741,0,0,1-.176.039,2.39,2.39,0,0,1-.279.014,2.357,2.357,0,0,1-.277-.014.722.722,0,0,1-.176-.039.185.185,0,0,1-.093-.064.154.154,0,0,1-.028-.092v-4.617a.156.156,0,0,1,.106-.155.572.572,0,0,1,.153-.039,1.707,1.707,0,0,1,.235-.013,1.808,1.808,0,0,1,.241.013.477.477,0,0,1,.148.039.16.16,0,0,1,.075.065.171.171,0,0,1,.023.09v.574a3.713,3.713,0,0,1,.3-.426,1.838,1.838,0,0,1,.27-.267.848.848,0,0,1,.255-.138.866.866,0,0,1,.256-.039,1.062,1.062,0,0,1,.128.009.939.939,0,0,1,.27.067.245.245,0,0,1,.081.048.183.183,0,0,1,.036.058.431.431,0,0,1,.02.085,1.341,1.341,0,0,1,.014.163C261.971,348.738,261.973,348.837,261.973,348.96Zm-7.239,4.188a.178.178,0,0,1-.023.092.171.171,0,0,1-.08.064.564.564,0,0,1-.151.039,1.718,1.718,0,0,1-.235.014,1.822,1.822,0,0,1-.245-.014.526.526,0,0,1-.148-.039.173.173,0,0,1-.078-.064.192.192,0,0,1-.022-.092v-.532a2.689,2.689,0,0,1-.687.62,1.4,1.4,0,0,1-.723.207,1.454,1.454,0,0,1-.706-.155,1.245,1.245,0,0,1-.461-.424,1.808,1.808,0,0,1-.251-.624,4.363,4.363,0,0,1-.075-.882v-2.827a.158.158,0,0,1,.025-.09.177.177,0,0,1,.09-.065.745.745,0,0,1,.177-.039,2.406,2.406,0,0,1,.277-.013,2.346,2.346,0,0,1,.277.013.711.711,0,0,1,.176.039.188.188,0,0,1,.093.065.148.148,0,0,1,.028.09v2.61a2.9,2.9,0,0,0,.04.553,1.073,1.073,0,0,0,.126.329.6.6,0,0,0,.214.212.587.587,0,0,0,.3.076.694.694,0,0,0,.441-.182,2.768,2.768,0,0,0,.472-.528v-3.07a.172.172,0,0,1,.025-.09.191.191,0,0,1,.092-.065.714.714,0,0,1,.176-.039,3.088,3.088,0,0,1,.556,0,.667.667,0,0,1,.173.039.2.2,0,0,1,.092.065.148.148,0,0,1,.028.09Zm-9.422-2.3a3.73,3.73,0,0,0-.048-.629,1.572,1.572,0,0,0-.162-.5.854.854,0,0,0-.3-.33.879.879,0,0,0-.477-.12.911.911,0,0,0-.447.106.847.847,0,0,0-.315.311,1.607,1.607,0,0,0-.185.491,3.19,3.19,0,0,0-.061.655,3.6,3.6,0,0,0,.05.629,1.7,1.7,0,0,0,.162.5.828.828,0,0,0,.3.329.9.9,0,0,0,.473.116.927.927,0,0,0,.454-.108.852.852,0,0,0,.315-.308,1.557,1.557,0,0,0,.182-.49A3.278,3.278,0,0,0,245.313,350.846Zm1.182-.053a4.025,4.025,0,0,1-.137,1.078,2.375,2.375,0,0,1-.416.838,1.848,1.848,0,0,1-.7.544,2.356,2.356,0,0,1-.982.191,2.416,2.416,0,0,1-.944-.17,1.709,1.709,0,0,1-.667-.5,2.138,2.138,0,0,1-.393-.8,4.169,4.169,0,0,1-.128-1.087,3.968,3.968,0,0,1,.139-1.08,2.387,2.387,0,0,1,.417-.838,1.876,1.876,0,0,1,.7-.541,2.311,2.311,0,0,1,.98-.193,2.462,2.462,0,0,1,.949.168,1.663,1.663,0,0,1,.664.495,2.15,2.15,0,0,1,.391.8A4.285,4.285,0,0,1,246.5,350.793Zm-9.235-.009v2.355a.15.15,0,0,1-.03.092.183.183,0,0,1-.1.067.836.836,0,0,1-.184.042,2.658,2.658,0,0,1-.583,0,.9.9,0,0,1-.185-.042.184.184,0,0,1-.1-.067.17.17,0,0,1-.026-.092v-2.355l-1.616-3.651a1.831,1.831,0,0,1-.112-.3.162.162,0,0,1,.028-.161.3.3,0,0,1,.193-.067c.1-.009.226-.014.393-.014.14,0,.252,0,.335.011a.733.733,0,0,1,.2.039.242.242,0,0,1,.107.076.722.722,0,0,1,.065.119l.658,1.647c.064.159.128.325.19.5s.125.361.188.553h.009c.058-.185.117-.368.178-.542s.12-.345.179-.5l.648-1.636a.444.444,0,0,1,.056-.132.247.247,0,0,1,.1-.08.582.582,0,0,1,.187-.042c.079-.007.184-.011.315-.011.174,0,.308.005.405.014a.313.313,0,0,1,.2.067.168.168,0,0,1,.025.163,1.892,1.892,0,0,1-.111.3Z" transform="translate(-151.435 -107.345)" fill="#f36a10"/>
      <path id="Path_3" data-name="Path 3" d="M660.157,353.438a1.671,1.671,0,0,1-.127.672,1.309,1.309,0,0,1-.354.486,1.541,1.541,0,0,1-.544.292,2.275,2.275,0,0,1-.68.1,2.381,2.381,0,0,1-.781-.132,1.9,1.9,0,0,1-.266-.118.731.731,0,0,1-.155-.113.385.385,0,0,1-.075-.166,1.648,1.648,0,0,1-.026-.333c0-.1,0-.174.009-.233a.794.794,0,0,1,.026-.14.138.138,0,0,1,.045-.07.113.113,0,0,1,.066-.017.3.3,0,0,1,.143.063c.064.041.142.087.237.137A2.283,2.283,0,0,0,658,354a1.263,1.263,0,0,0,.425.065.974.974,0,0,0,.268-.034.626.626,0,0,0,.2-.1.4.4,0,0,0,.131-.166.583.583,0,0,0,.044-.229.415.415,0,0,0-.082-.258.729.729,0,0,0-.217-.188,2.193,2.193,0,0,0-.3-.151c-.113-.046-.229-.1-.348-.156a3.163,3.163,0,0,1-.35-.2,1.411,1.411,0,0,1-.3-.27,1.288,1.288,0,0,1-.216-.386,1.6,1.6,0,0,1-.081-.541,1.52,1.52,0,0,1,.11-.588,1.28,1.28,0,0,1,.318-.46,1.439,1.439,0,0,1,.505-.294,2,2,0,0,1,.67-.106,2.3,2.3,0,0,1,.676.106,1.234,1.234,0,0,1,.238.1.828.828,0,0,1,.14.089.281.281,0,0,1,.059.075.361.361,0,0,1,.027.091c.006.036.011.078.015.13s.007.116.007.193,0,.164-.007.221a.63.63,0,0,1-.023.135.118.118,0,0,1-.041.068.109.109,0,0,1-.062.017.267.267,0,0,1-.124-.053c-.057-.034-.127-.072-.211-.113a2.556,2.556,0,0,0-.291-.113,1.279,1.279,0,0,0-.377-.051.844.844,0,0,0-.261.034.461.461,0,0,0-.181.1.408.408,0,0,0-.107.152.515.515,0,0,0-.035.188.4.4,0,0,0,.084.26.794.794,0,0,0,.22.186,2.538,2.538,0,0,0,.312.151c.116.046.234.1.353.152a3.009,3.009,0,0,1,.353.193,1.369,1.369,0,0,1,.312.27,1.275,1.275,0,0,1,.22.383,1.505,1.505,0,0,1,.084.529m-6.935.551c0,.087,0,.161-.007.219s-.011.108-.017.147a.446.446,0,0,1-.027.1.353.353,0,0,1-.068.1,1.032,1.032,0,0,1-.183.14,1.636,1.636,0,0,1-.291.147,2.08,2.08,0,0,1-.356.106,1.87,1.87,0,0,1-.4.04,1.942,1.942,0,0,1-.807-.159,1.55,1.55,0,0,1-.59-.474,2.178,2.178,0,0,1-.359-.764,3.968,3.968,0,0,1-.122-1.031,4.057,4.057,0,0,1,.148-1.161,2.327,2.327,0,0,1,.413-.809,1.638,1.638,0,0,1,.627-.475,1.981,1.981,0,0,1,.795-.156,1.671,1.671,0,0,1,.347.036,1.756,1.756,0,0,1,.318.094,1.732,1.732,0,0,1,.266.135.923.923,0,0,1,.166.13.5.5,0,0,1,.068.094.321.321,0,0,1,.032.1,1.364,1.364,0,0,1,.018.147c0,.058.006.13.006.214a1.331,1.331,0,0,1-.044.409c-.03.077-.068.116-.115.116a.247.247,0,0,1-.16-.07q-.084-.069-.2-.154a1.342,1.342,0,0,0-.273-.156.921.921,0,0,0-.38-.07.731.731,0,0,0-.664.378,2.177,2.177,0,0,0-.229,1.11,3.1,3.1,0,0,0,.057.636,1.436,1.436,0,0,0,.17.46.738.738,0,0,0,.282.279.818.818,0,0,0,.4.092.938.938,0,0,0,.4-.077,1.515,1.515,0,0,0,.288-.173c.083-.063.152-.121.208-.173a.232.232,0,0,1,.142-.079.092.092,0,0,1,.066.026.186.186,0,0,1,.042.092,1.246,1.246,0,0,1,.024.173C653.219,353.788,653.222,353.879,653.222,353.988Zm-8.363-1.517a3.606,3.606,0,0,0-.047-.609,1.524,1.524,0,0,0-.157-.484.828.828,0,0,0-.294-.32.851.851,0,0,0-.462-.116.882.882,0,0,0-.433.1.819.819,0,0,0-.3.3,1.56,1.56,0,0,0-.179.476,3.082,3.082,0,0,0-.059.634,3.483,3.483,0,0,0,.048.609,1.641,1.641,0,0,0,.157.484.8.8,0,0,0,.294.318.867.867,0,0,0,.458.113.9.9,0,0,0,.439-.1.824.824,0,0,0,.3-.3,1.515,1.515,0,0,0,.176-.474A3.174,3.174,0,0,0,644.858,352.471ZM646,352.42a3.884,3.884,0,0,1-.133,1.043,2.3,2.3,0,0,1-.4.81,1.79,1.79,0,0,1-.676.527,2.283,2.283,0,0,1-.95.185,2.339,2.339,0,0,1-.914-.164,1.656,1.656,0,0,1-.646-.482,2.066,2.066,0,0,1-.38-.777,4.037,4.037,0,0,1-.124-1.052,3.846,3.846,0,0,1,.134-1.045,2.317,2.317,0,0,1,.4-.811,1.816,1.816,0,0,1,.674-.523,2.237,2.237,0,0,1,.949-.187,2.384,2.384,0,0,1,.918.163,1.608,1.608,0,0,1,.642.479,2.083,2.083,0,0,1,.379.776A4.151,4.151,0,0,1,646,352.42Zm-9.431-.842a3.667,3.667,0,0,0-.1-.857,1.924,1.924,0,0,0-.306-.686,1.424,1.424,0,0,0-.538-.453,1.94,1.94,0,0,0-.864-.164h-.587v4.411h.6a2.056,2.056,0,0,0,.8-.14,1.364,1.364,0,0,0,.546-.424,1.919,1.919,0,0,0,.327-.7A3.949,3.949,0,0,0,636.572,351.578Zm1.2-.045a4.967,4.967,0,0,1-.207,1.526,2.647,2.647,0,0,1-.59,1.035,2.3,2.3,0,0,1-.933.588,4.086,4.086,0,0,1-1.311.188h-1.365a.337.337,0,0,1-.246-.1.431.431,0,0,1-.1-.318V348.8a.43.43,0,0,1,.1-.318.336.336,0,0,1,.246-.1h1.466a3.65,3.65,0,0,1,1.3.2,2.311,2.311,0,0,1,.9.6,2.637,2.637,0,0,1,.555.985A4.4,4.4,0,0,1,637.774,351.534Zm-15.587,1.457a1.09,1.09,0,0,0,.071.4.857.857,0,0,0,.2.31.893.893,0,0,0,.329.2,1.312,1.312,0,0,0,.453.074,1.247,1.247,0,0,0,.264-.029,1.757,1.757,0,0,0,.256-.074,1.511,1.511,0,0,0,.238-.116,1.659,1.659,0,0,0,.21-.147c-.133-.121-.265-.248-.4-.383s-.265-.272-.392-.409-.247-.274-.363-.409-.22-.263-.312-.383a1.545,1.545,0,0,0-.258.227,1.361,1.361,0,0,0-.17.238.981.981,0,0,0-.1.246A1.036,1.036,0,0,0,622.187,352.991Zm.495-3.311a.8.8,0,0,0,.032.217,1.435,1.435,0,0,0,.086.236,2.167,2.167,0,0,0,.139.26c.056.092.119.192.19.3a5.052,5.052,0,0,0,.436-.3,1.788,1.788,0,0,0,.281-.263.82.82,0,0,0,.149-.255.79.79,0,0,0,.045-.263.62.62,0,0,0-.041-.226.464.464,0,0,0-.124-.183.636.636,0,0,0-.207-.123,1.021,1.021,0,0,0-.608,0,.539.539,0,0,0-.214.135.527.527,0,0,0-.124.205A.768.768,0,0,0,622.682,349.68Zm-1.7,3.381a1.824,1.824,0,0,1,.074-.528,1.716,1.716,0,0,1,.218-.469,2.365,2.365,0,0,1,.359-.421,3.983,3.983,0,0,1,.5-.39c-.106-.154-.2-.3-.276-.434a3.2,3.2,0,0,1-.195-.388,2.076,2.076,0,0,1-.115-.352,1.5,1.5,0,0,1-.038-.334,1.928,1.928,0,0,1,.11-.658,1.375,1.375,0,0,1,.345-.534,1.671,1.671,0,0,1,.6-.359,2.531,2.531,0,0,1,.87-.132,2.835,2.835,0,0,1,.8.1,1.5,1.5,0,0,1,.552.284,1.129,1.129,0,0,1,.323.45,1.633,1.633,0,0,1,.106.6,1.665,1.665,0,0,1-.09.558,1.7,1.7,0,0,1-.275.486,2.675,2.675,0,0,1-.457.443,5.971,5.971,0,0,1-.641.429c.08.1.169.212.267.327s.2.231.306.347.21.229.315.342.209.219.309.316a1.293,1.293,0,0,0,.1-.231,2.359,2.359,0,0,0,.08-.275c.021-.1.039-.2.053-.3a2.2,2.2,0,0,0,.019-.3v-.156a.222.222,0,0,1,.018-.094.13.13,0,0,1,.072-.065.571.571,0,0,1,.16-.037,2.194,2.194,0,0,1,.267-.014c.1,0,.188,0,.256.008a.525.525,0,0,1,.162.033.167.167,0,0,1,.083.067.214.214,0,0,1,.026.108v.161a3.781,3.781,0,0,1-.032.486,4.055,4.055,0,0,1-.091.479,3.181,3.181,0,0,1-.148.446,3.579,3.579,0,0,1-.194.4q.154.134.267.226a2.327,2.327,0,0,0,.193.142.6.6,0,0,0,.131.072.26.26,0,0,0,.089.02h.091a.083.083,0,0,1,.069.036.3.3,0,0,1,.039.125,1.906,1.906,0,0,1,.014.265c0,.125,0,.221-.007.291a.845.845,0,0,1-.021.156.164.164,0,0,1-.054.082.322.322,0,0,1-.125.06.7.7,0,0,1-.213.029.762.762,0,0,1-.2-.029,1.02,1.02,0,0,1-.241-.1c-.091-.051-.2-.12-.318-.205s-.26-.2-.419-.329a3.757,3.757,0,0,1-.428.287,2.734,2.734,0,0,1-.461.214,3.205,3.205,0,0,1-1.606.125,2.347,2.347,0,0,1-.514-.152,1.985,1.985,0,0,1-.44-.258,1.581,1.581,0,0,1-.341-.368,1.773,1.773,0,0,1-.22-.487A2.16,2.16,0,0,1,620.985,353.061Z" transform="translate(-447.56 -108.83)" fill="#f36a10"/>
      <g id="Group_2" data-name="Group 2" transform="translate(49.062 209.24)">
        <g id="Group_1-2" data-name="Group 1" transform="translate(0)" clip-path="url(#clip-path)">
          <path id="Path_4" data-name="Path 4" d="M0,0,6.839-.022,6.817,6.822l-6.839.022Z" transform="translate(-2.427 2.402) rotate(-45.987)" fill="url(#linear-gradient)"/>
        </g>
      </g>
      <g id="Group_4" data-name="Group 4" transform="translate(56.717 205.676)">
        <g id="Group_3" data-name="Group 3" clip-path="url(#clip-path-2)">
          <rect id="Rectangle_2" data-name="Rectangle 2" width="6.73" height="2.451" transform="translate(-0.091 6.594) rotate(-89.731)" fill="url(#linear-gradient-2)"/>
        </g>
      </g>
      <g id="Group_6" data-name="Group 6" transform="translate(61.736 209.24)">
        <g id="Group_5" data-name="Group 5" clip-path="url(#clip-path-3)">
          <path id="Path_5" data-name="Path 5" d="M0,0,6.846-.022l-.022,6.84L-.022,6.84Z" transform="translate(-2.359 2.16) rotate(-43.046)" fill="url(#linear-gradient)"/>
        </g>
      </g>
      <g id="Group_8" data-name="Group 8" transform="translate(63.193 216.649)">
        <g id="Group_7" data-name="Group 7" clip-path="url(#clip-path-4)">
          <path id="Path_6" data-name="Path 6" d="M0,0H2.74l0,6.628H0Z" transform="matrix(0.039, -0.999, 0.999, 0.039, -0.095, 2.407)" fill="url(#linear-gradient)"/>
        </g>
      </g>
      <g id="Group_10" data-name="Group 10" transform="translate(48.693 220.588)">
        <g id="Group_9" data-name="Group 9" clip-path="url(#clip-path-5)">
          <rect id="Rectangle_5" data-name="Rectangle 5" width="17.968" height="27.011" transform="translate(-0.001 -0.002)" fill="url(#linear-gradient-5)"/>
        </g>
      </g>
      <g id="Group_12" data-name="Group 12" transform="translate(60.547 227.113)">
        <g id="Group_11" data-name="Group 11" clip-path="url(#clip-path-6)">
          <rect id="Rectangle_6" data-name="Rectangle 6" width="18.245" height="21.913" transform="translate(-0.004 -0.006)" fill="url(#linear-gradient-6)"/>
        </g>
      </g>
      <g id="Group_14" data-name="Group 14" transform="translate(36.584 227.116)">
        <g id="Group_13" data-name="Group 13" clip-path="url(#clip-path-7)">
          <rect id="Rectangle_7" data-name="Rectangle 7" width="18.239" height="21.921" transform="translate(-0.02 -0.007)" fill="url(#linear-gradient-7)"/>
        </g>
      </g>
      <g id="Group_16" data-name="Group 16" transform="translate(53.481 213.31)">
        <g id="Group_15" data-name="Group 15" clip-path="url(#clip-path-8)">
          <rect id="Rectangle_8" data-name="Rectangle 8" width="8.849" height="9.088" transform="translate(-0.034 0)" fill="url(#linear-gradient-17)"/>
        </g>
      </g>
      <g id="Group_18" data-name="Group 18" transform="translate(46.074 216.649)">
        <g id="Group_17" data-name="Group 17" transform="translate(0)" clip-path="url(#clip-path-9)">
          <path id="Path_7" data-name="Path 7" d="M0,0H2.557V6.572H0Z" transform="translate(-0.148 2.355) rotate(-89.376)" fill="url(#linear-gradient-2)"/>
        </g>
      </g>
      <g id="Group_20" data-name="Group 20" transform="translate(52.554 212.356)">
        <g id="Group_19" data-name="Group 19" clip-path="url(#clip-path-10)">
          <rect id="Rectangle_10" data-name="Rectangle 10" width="10.733" height="11.024" transform="translate(-0.041 0)" fill="url(#linear-gradient-9)"/>
        </g>
      </g>
    </g>
  </g>
</svg>
